<?xml version="1.0" encoding="UTF-8"?>
<svg id="uuid-b7b9bdf1-ca2e-4e65-8b08-eec1e50f4c2c" data-name="Layer 2" xmlns="http://www.w3.org/2000/svg" width="22.7" height="22.9" viewBox="0 0 22.7 22.9">
  <g id="uuid-6899b99f-8f9e-46ff-8c02-cd56e7661dc1" data-name="Capa 1">
    <path d="M16.6,13.7c-.3-.1-1.7-.8-1.9-.9-.3,0-.4-.1-.6,.1-.2,.3-.7,.9-.9,1.1-.2,.2-.3,.2-.6,0-.3-.1-1.2-.4-2.3-1.4-.8-.8-1.4-1.7-1.6-2-.2-.3,0-.4,.1-.6,.3-.4,.6-.8,.7-1,0-.2,0-.4,0-.5,0-.1-.6-1.5-.9-2.1-.2-.6-.5-.5-.6-.5-.2,0-.4,0-.5,0s-.5,0-.8,.4c-.3,.3-1,1-1,2.4s1,2.7,1.2,2.9c.1,.2,2,3,4.8,4.3,.7,.3,1.2,.5,1.6,.6,.7,.2,1.3,.2,1.8,.1,.5,0,1.7-.7,1.9-1.3,.2-.7,.2-1.2,.2-1.3s-.3-.2-.5-.3m-5.2,7.1h0c-1.7,0-3.3-.5-4.8-1.3l-.3-.2-3.6,.9,1-3.5-.2-.4c-.9-1.5-1.4-3.2-1.4-5,0-5.2,4.2-9.4,9.4-9.4,2.5,0,4.9,1,6.7,2.8,1.8,1.8,2.8,4.1,2.8,6.7,0,5.2-4.2,9.4-9.4,9.4M19.4,3.3C17.3,1.2,14.5,0,11.4,0,5.2,0,0,5.1,0,11.3c0,2,.5,3.9,1.5,5.7l-1.6,5.9,6-1.6c1.7,.9,3.5,1.4,5.4,1.4h0c6.2,0,11.3-5.1,11.3-11.3,0-3-1.2-5.9-3.3-8" style="fill-rule: evenodd;"/>
  </g>
</svg>