<?xml version="1.0" encoding="UTF-8"?>
<svg id="uuid-fb9b7b68-af84-431f-ba37-655d3f5bbc8b" xmlns="http://www.w3.org/2000/svg" width="83.4" height="22.1" viewBox="0 0 83.4 22.1" fill="#FFF">
  <g id="uuid-59b99dc6-e8e2-49a0-a20e-0d0b651ed1f4">
    <g>
      <path d="M72.2,3.2c-.9-1-2-1.8-3.3-2.4-1.3-.6-2.7-.9-4.1-.9s-2.9,.3-4.2,.9c-1.3,.6-2.4,1.4-3.3,2.4-.9,1-1.6,2.2-2.2,3.5-.5,1.3-.8,2.8-.8,4.3s.3,3,.8,4.3c.5,1.3,1.2,2.5,2.2,3.5,.9,1,2,1.8,3.3,2.4,1.3,.6,2.7,.9,4.2,.9s2.9-.3,4.1-.9c1.3-.6,2.4-1.4,3.3-2.4,.9-1,1.6-2.2,2.2-3.5,.5-1.3,.8-2.8,.8-4.3s-.3-3-.8-4.3c-.5-1.3-1.2-2.5-2.2-3.5Zm-1.6,10.6c-.3,.9-.8,1.6-1.4,2.3-.6,.7-1.2,1.2-2,1.6-.8,.4-1.6,.6-2.5,.6s-1.7-.2-2.5-.6c-.8-.4-1.5-.9-2-1.6-.6-.7-1-1.4-1.4-2.3-.3-.9-.5-1.8-.5-2.8s.2-1.9,.5-2.8c.3-.9,.8-1.6,1.4-2.3,.6-.7,1.3-1.2,2-1.6,.8-.4,1.6-.6,2.5-.6s1.7,.2,2.5,.6c.8,.4,1.4,.9,2,1.6,.6,.7,1,1.4,1.4,2.3,.3,.9,.5,1.8,.5,2.8s-.2,1.9-.5,2.8Z"/>
      <path d="M80.5,.1c-1.6,0-2.9,1.3-2.9,2.9s1.3,3,2.9,3,2.9-1.3,2.9-3-1.3-2.9-2.9-2.9Z"/>
      <polygon points="0 22.1 4.2 22.1 4.2 13.4 14.5 13.4 14.5 9.2 4.2 9.2 4.2 4.2 17.2 4.2 17.2 0 0 0 0 22.1"/>
      <polygon points="20.4 0 20.2 0 20.2 22.1 20.4 22.1 24.4 22.1 51.7 22.1 51.7 18 24.4 18 24.4 13.4 50 13.4 50 9.3 24.4 9.3 24.4 4.2 51.7 4.2 51.7 0 24.4 0 20.4 0"/>
    </g>
  </g>
</svg>