<svg id="uuid-371620d1-7ccc-4c6a-b541-f944a547c1d2"  xmlns="http://www.w3.org/2000/svg" width="232.9" height="409.2" viewBox="0 0 232.9 409.2">
  <g id="uuid-5ea2b103-8bb1-4ff7-9e2f-e4ac93b87cec" data-name="Capa 1">
    <path d="M108.6,403.8c3,6.4,9.8,6.5,12.8,.1L221.3,134.7c4.2-10.6,7.4-21.9,9.4-33.6,.9-5.4,1.6-10.8,1.6-15.2C232.4,38.8,204.6,.5,170.3,.5s-43.2,17.4-53.9,43.2C105.6,17.4,84.9-.1,61.3,.5,28.5,1.4,1.6,38,.5,83.2c-.1,6.5,.2,12.8,1.1,18.9,1.1,7.8,3.1,15.4,5.8,22.4L108.6,403.8Z" style="fill: #000; stroke: none; stroke-miterlimit: 10;"/>
  </g>
</svg>